<svg width="32" height="32" viewBox="0 0 32 32" fill="none" xmlns="http://www.w3.org/2000/svg">
<rect x="0.25" y="0.25" width="31.5" height="31.5" rx="3.75" stroke="#E5E7EB" stroke-width="0.5"/>
<path d="M25 13H19V7H25V13ZM20.5 11.5H23.5V8.5H20.5V11.5Z" fill="#808A97"/>
<path d="M16.75 15.25V10.75H10.75V21.25H21.25V15.25H16.75ZM12.25 12.25H15.25V15.25H12.25V12.25ZM15.25 19.75H12.25V16.75H15.25V19.75ZM19.75 19.75H16.75V16.75H19.75V19.75Z" fill="#808A97"/>
<path d="M23.5 25H8.5C8.10232 24.9995 7.72105 24.8414 7.43984 24.5602C7.15864 24.279 7.00046 23.8977 7 23.5V8.5C7.00046 8.10232 7.15864 7.72105 7.43984 7.43984C7.72105 7.15864 8.10232 7.00046 8.5 7H16V8.5H8.5V23.5H23.5V16H25V23.5C24.9995 23.8977 24.8414 24.279 24.5602 24.5602C24.279 24.8414 23.8977 24.9995 23.5 25Z" fill="#808A97"/>
</svg>
