<svg width="32" height="32" viewBox="0 0 32 32" fill="none" xmlns="http://www.w3.org/2000/svg">
<rect x="0.25" y="0.25" width="31.5" height="31.5" rx="3.75" stroke="#E5E7EB" stroke-width="0.5"/>
<path d="M11.5 16C11.5 15.6267 11.8026 15.324 12.176 15.324H15.324V12.176C15.324 11.8027 15.6266 11.5 16 11.5C16.3733 11.5 16.676 11.8027 16.676 12.176V15.324H19.824C20.1973 15.324 20.5 15.6267 20.5 16C20.5 16.3734 20.1973 16.676 19.824 16.676H16.676V19.824C16.676 20.1974 16.3733 20.5 16 20.5C15.6266 20.5 15.324 20.1974 15.324 19.824V16.676H12.176C11.8026 16.676 11.5 16.3734 11.5 16Z" fill="#6D7885"/>
<path d="M23.5 23.875V25H8.5V23.875H23.5ZM23.875 23.5V8.5C23.875 8.29289 23.7071 8.125 23.5 8.125H8.5C8.29289 8.125 8.125 8.29289 8.125 8.5V23.5C8.125 23.7071 8.29289 23.875 8.5 23.875V25L8.34692 24.9919C7.64076 24.9204 7.07965 24.3592 7.00806 23.6531L7 23.5V8.5C7 7.67157 7.67157 7 8.5 7H23.5C24.3284 7 25 7.67157 25 8.5V23.5C25 24.2767 24.4096 24.9152 23.6531 24.9919L23.5 25V23.875C23.7071 23.875 23.875 23.7071 23.875 23.5Z" fill="#6D7885"/>
</svg>
