<svg width="32" height="32" viewBox="0 0 32 32" fill="none" xmlns="http://www.w3.org/2000/svg">
<rect x="0.25" y="0.25" width="31.5" height="31.5" rx="3.75" stroke="#E5E7EB" stroke-width="0.5"/>
<path d="M23.5 23.875V25H8.5V23.875H23.5ZM23.875 23.5V8.5C23.875 8.29289 23.7071 8.125 23.5 8.125H8.5C8.29289 8.125 8.125 8.29289 8.125 8.5V23.5C8.125 23.7071 8.29289 23.875 8.5 23.875V25L8.34692 24.9919C7.64076 24.9204 7.07965 24.3592 7.00806 23.6531L7 23.5V8.5C7 7.67157 7.67157 7 8.5 7H23.5C24.3284 7 25 7.67157 25 8.5V23.5C25 24.2767 24.4096 24.9152 23.6531 24.9919L23.5 25V23.875C23.7071 23.875 23.875 23.7071 23.875 23.5Z" fill="#6D7885"/>
<path d="M18.4697 16.2197C18.7626 15.9268 19.2374 15.9268 19.5303 16.2197C19.8232 16.5126 19.8232 16.9874 19.5303 17.2803L16.5303 20.2803C16.2374 20.5732 15.7626 20.5732 15.4697 20.2803L12.4697 17.2803C12.1768 16.9874 12.1768 16.5126 12.4697 16.2197C12.7626 15.9268 13.2374 15.9268 13.5303 16.2197L16 18.6895L18.4697 16.2197ZM18.4697 11.7197C18.7626 11.4268 19.2374 11.4268 19.5303 11.7197C19.8232 12.0126 19.8232 12.4874 19.5303 12.7803L16.5303 15.7803C16.2374 16.0732 15.7626 16.0732 15.4697 15.7803L12.4697 12.7803C12.1768 12.4874 12.1768 12.0126 12.4697 11.7197C12.7626 11.4268 13.2374 11.4268 13.5303 11.7197L16 14.1895L18.4697 11.7197Z" fill="#6D7885"/>
</svg>
