<svg width="101" height="65" viewBox="0 0 101 65" fill="none" xmlns="http://www.w3.org/2000/svg">
<path fill-rule="evenodd" clip-rule="evenodd" d="M0.0612012 32.1951L19.0356 43.1637L18.9744 64.9998L0 54.0311L0.0612012 32.1951Z" fill="#F15A29"/>
<path fill-rule="evenodd" clip-rule="evenodd" d="M0.16687 32.7009L18.7864 43.3215L18.5117 63.9923L0.539026 53.578L0.16687 32.7009Z" fill="url(#paint0_linear_279_25044)"/>
<path fill-rule="evenodd" clip-rule="evenodd" d="M19.722 64.9942L19.7832 43.1624L38.6318 32.1943L38.5706 54.0261L19.722 64.9942Z" fill="#FBB040"/>
<path fill-rule="evenodd" clip-rule="evenodd" d="M20.0929 64.3524L20.1517 43.376L38.2617 32.8376L38.2029 53.814L20.0929 64.3524Z" fill="url(#paint1_linear_279_25044)"/>
<path fill-rule="evenodd" clip-rule="evenodd" d="M19.4104 42.5145L0.436035 31.5459L19.2919 20.5757L38.2626 31.5443L19.4104 42.5145Z" fill="#F9ED32"/>
<path fill-rule="evenodd" clip-rule="evenodd" d="M19.4061 41.8792L1.53064 31.5458L19.2944 21.2109L37.1665 31.5443L19.4061 41.8792Z" fill="url(#paint2_linear_279_25044)"/>
<defs>
<linearGradient id="paint0_linear_279_25044" x1="-15.1002" y1="70.0172" x2="15.667" y2="46.0092" gradientUnits="userSpaceOnUse">
<stop stop-color="#FDFDFD"/>
<stop offset="1" stop-color="#F15A29" stop-opacity="0.5"/>
</linearGradient>
<linearGradient id="paint1_linear_279_25044" x1="-13.7148" y1="69.9447" x2="38.2934" y2="41.4766" gradientUnits="userSpaceOnUse">
<stop stop-color="white"/>
<stop offset="1" stop-color="#FBB040" stop-opacity="0.4"/>
</linearGradient>
<linearGradient id="paint2_linear_279_25044" x1="15.707" y1="39.0274" x2="19.3575" y2="26.2913" gradientUnits="userSpaceOnUse">
<stop stop-opacity="0.08"/>
<stop offset="1" stop-color="#F9ED32" stop-opacity="0"/>
</linearGradient>
</defs>
</svg>
