<svg width="24" height="24" viewBox="0 0 24 24" fill="none" xmlns="http://www.w3.org/2000/svg">
<g clip-path="url(#clip0_949_33809)">
<path d="M23.04 0H0.96C0.429 0 0 0.429 0 0.96V23.04C0 23.571 0.429 24 0.96 24H23.04C23.571 24 24 23.571 24 23.04V0.96C24 0.429 23.571 0 23.04 0ZM14.595 7.167H18.747V8.178H14.595V7.167ZM12 15.504C11.8058 15.8726 11.5285 16.191 11.19 16.434C10.836 16.68 10.443 16.86 10.026 16.965C9.58972 17.0819 9.13966 17.1394 8.688 17.136H3.72V6.903H8.55C9.039 6.903 9.483 6.948 9.888 7.032C10.29 7.116 10.632 7.26 10.92 7.455C11.205 7.65 11.43 7.911 11.589 8.235C11.745 8.556 11.826 8.958 11.826 9.435C11.826 9.951 11.709 10.377 11.475 10.722C11.238 11.067 10.896 11.346 10.431 11.565C11.064 11.745 11.529 12.066 11.835 12.516C12.147 12.972 12.3 13.518 12.3 14.16C12.3 14.682 12.201 15.129 12 15.504ZM20.364 13.92H15.012C15.012 14.502 15.213 15.06 15.516 15.36C15.822 15.657 16.26 15.807 16.833 15.807C17.247 15.807 17.598 15.702 17.898 15.495C18.195 15.288 18.375 15.069 18.441 14.841H20.235C19.947 15.732 19.509 16.368 18.915 16.752C18.327 17.136 17.607 17.328 16.77 17.328C16.185 17.328 15.66 17.232 15.189 17.049C14.736 16.872 14.328 16.602 13.992 16.254C13.6607 15.8966 13.4046 15.4763 13.239 15.018C13.056 14.511 12.966 13.977 12.972 13.44C12.972 12.885 13.065 12.369 13.245 11.889C13.59 10.956 14.307 10.209 15.222 9.822C15.711 9.618 16.236 9.516 16.767 9.522C17.397 9.522 17.943 9.642 18.417 9.888C18.8733 10.1229 19.2695 10.4596 19.575 10.872C19.878 11.283 20.091 11.751 20.226 12.279C20.355 12.798 20.4 13.344 20.364 13.92ZM16.704 11.052C16.38 11.052 16.107 11.109 15.897 11.22C15.687 11.331 15.513 11.469 15.381 11.628C15.2553 11.7815 15.1624 11.9592 15.108 12.15C15.06 12.309 15.027 12.471 15.015 12.636H18.33C18.282 12.117 18.102 11.733 17.862 11.463C17.61 11.196 17.205 11.052 16.704 11.052ZM9.249 10.749C9.51 10.56 9.636 10.248 9.636 9.819C9.645 9.615 9.603 9.414 9.513 9.231C9.432 9.084 9.312 8.961 9.165 8.874C9.01258 8.78157 8.84329 8.72038 8.667 8.694C8.475 8.658 8.28 8.64 8.088 8.643H5.979V11.034H8.262C8.655 11.037 8.988 10.941 9.249 10.749ZM9.603 12.909C9.309 12.684 8.916 12.573 8.427 12.573H5.973V15.393H8.379C8.604 15.393 8.811 15.372 9.012 15.33C9.213 15.288 9.393 15.216 9.546 15.114C9.699 15.015 9.822 14.88 9.915 14.706C10.005 14.532 10.05 14.31 10.05 14.043C10.05 13.512 9.9 13.137 9.603 12.909Z" fill="#192434"/>
</g>
<defs>
<clipPath id="clip0_949_33809">
<rect width="24" height="24" rx="2" fill="white"/>
</clipPath>
</defs>
</svg>
