<svg width="1920" height="144" viewBox="0 0 1920 144" fill="none" xmlns="http://www.w3.org/2000/svg">
<g clip-path="url(#clip0_287_25149)">
<path fill-rule="evenodd" clip-rule="evenodd" d="M418.661 66.917H479.5L479.375 67.0039C479.601 67.002 479.828 67 480.055 67C488.093 67 495.37 68.2501 501.884 70.75C508.398 73.25 513.966 76.8838 518.586 81.6523C523.206 86.3746 526.763 92.1157 529.258 98.875C531.753 105.634 533 113.25 533 121.723V130.611H463.699V132.277C463.699 135.703 464.415 138.759 465.848 141.444C467.28 144.13 469.336 146.236 472.016 147.764C474.695 149.291 477.929 150.056 481.718 150.056C484.351 150.056 486.753 149.685 488.925 148.944C491.142 148.204 493.037 147.139 494.607 145.75C496.178 144.315 497.333 142.602 498.072 140.611H533C531.799 148.019 528.958 154.454 524.477 159.917C519.995 165.334 514.058 169.546 506.666 172.556C499.32 175.519 490.726 177 480.886 177C469.521 177 459.726 174.824 451.503 170.473C445.097 167.028 439.84 162.417 435.73 156.643L440 177.365C438.198 177.902 435.615 178.56 432.254 179.34C428.941 180.12 424.995 180.632 420.415 180.876C411.159 181.364 403.388 180.413 397.104 178.023C390.819 175.585 386.093 171.758 382.927 166.54C379.76 161.323 378.225 154.788 378.322 146.938V96.1748H364L363.858 96.0781C363.951 97.0032 364 97.9431 364 98.8984V165.481H331.399V151.811H330.642C328.704 155.439 326.345 158.371 323.565 160.607C320.828 162.844 317.689 164.469 314.151 165.481C310.656 166.494 306.802 167 302.59 167C296.398 167 290.923 165.987 286.163 163.962C282.073 162.169 278.743 159.584 276.173 156.205C275.352 157.488 274.453 158.726 273.476 159.917C268.994 165.333 263.058 169.546 255.666 172.556C248.32 175.519 239.726 177 229.886 177C218.521 177 208.726 174.824 200.503 170.473C192.325 166.075 186.019 159.777 181.584 151.583C177.195 143.342 175 133.481 175 122C175 115.938 175.672 110.297 177.015 105.076C175.287 104.941 173.725 104.871 172.327 104.871C167.914 104.871 163.936 105.878 160.395 107.892C156.907 109.85 154.156 112.626 152.14 116.217C150.124 119.754 149.115 123.916 149.115 128.704V194H104V164.082C99.7849 169.903 94.2516 174.524 87.3984 177.943C79.355 181.981 69.7418 184 58.5596 184C46.2985 184 35.8032 181.562 27.0732 176.688C18.3432 171.763 11.6485 164.918 6.98926 156.153C2.32997 147.339 0 137.121 0 125.5C0 113.879 2.33005 103.686 6.98926 94.9209C11.6485 86.1065 18.3432 79.2617 27.0732 74.3867C35.8032 69.4626 46.2985 67 58.5596 67C69.6438 67 79.2327 69.0188 87.3252 73.0566C94.1917 76.4207 99.75 80.9758 104 86.7217V67H147.808V92.4648H149.115C151.404 83.6501 155.027 77.202 159.985 73.1211C164.998 69.0402 170.856 67 177.558 67C179.519 67 181.453 67.1628 183.36 67.4893C185.322 67.7613 187.202 68.1697 189 68.7139V82.8271C192.286 79.3172 196.098 76.333 200.434 73.875C208.519 69.2918 218.059 67 229.055 67C237.093 67 244.37 68.2501 250.884 70.75C257.398 73.25 262.966 76.8838 267.586 81.6523C270.904 85.0435 273.673 88.9606 275.895 93.4023C276.84 89.9498 278.346 86.6761 280.414 83.582C283.784 78.5611 288.691 74.5524 295.135 71.5566C301.579 68.5188 309.624 67 319.27 67C319.904 67 320.533 67.0087 321.155 67.0225L321 66.917H378.322V24H418.661V66.917ZM59.1484 97.4316C55.6172 97.4316 52.5273 98.466 49.8789 100.534C47.2306 102.553 45.1706 105.63 43.6992 109.767C42.2279 113.854 41.4922 119 41.4922 125.204C41.4922 131.409 42.2279 136.579 43.6992 140.716C45.1706 144.803 47.2305 147.881 49.8789 149.949C52.5273 151.968 55.6173 152.978 59.1484 152.978C62.1402 152.978 64.7886 152.288 67.0938 150.909C69.3989 149.481 71.2623 147.412 72.6846 144.704C74.1558 141.947 75.0387 138.598 75.333 134.659H104V115.75H75.333C74.7935 109.792 73.0772 105.261 70.1836 102.159C67.339 99.0077 63.6606 97.4316 59.1484 97.4316ZM418.661 96.1748V143.134C418.661 144.694 418.929 146.01 419.465 147.083C420.001 148.107 420.829 148.887 421.949 149.424C423.07 149.911 424.507 150.155 426.261 150.155C427.479 150.155 428.892 150.009 430.5 149.717C430.873 149.651 431.223 149.586 431.551 149.525C427.851 141.716 426 132.541 426 122C426 112.319 427.712 103.711 431.136 96.1748H418.661ZM212.699 132.277C212.699 135.703 213.415 138.759 214.848 141.444C216.28 144.13 218.336 146.236 221.016 147.764C223.695 149.291 226.929 150.056 230.718 150.056C233.351 150.056 235.753 149.685 237.925 148.944C240.142 148.204 242.037 147.139 243.607 145.75C245.178 144.315 246.333 142.602 247.072 140.611H271.044C271.015 139.968 271 139.313 271 138.646C271 135.733 271.274 133.055 271.817 130.611H212.699V132.277ZM329.378 122.949C328.451 123.329 327.461 123.688 326.408 124.025C325.397 124.363 324.302 124.679 323.123 124.975C321.986 125.27 320.765 125.545 319.459 125.798C318.195 126.051 316.868 126.283 315.479 126.494C312.783 126.916 310.572 127.612 308.845 128.582C307.16 129.51 305.896 130.671 305.054 132.063C304.254 133.414 303.854 134.932 303.854 136.62C303.854 139.321 304.801 141.389 306.696 142.823C308.592 144.258 311.014 144.975 313.962 144.975C316.615 144.975 319.1 144.426 321.417 143.329C323.776 142.232 325.692 140.65 327.166 138.582C328.64 136.515 329.378 134.004 329.378 131.051V122.949ZM318.764 91.0508C315.436 91.0508 312.719 91.7888 310.613 93.2656C308.549 94.7002 307.307 96.9155 306.886 99.9111H278.627C280.271 104.663 281.313 109.827 281.755 115.403C284.894 113.161 288.511 111.434 292.607 110.228C296.946 108.962 301.621 108.14 306.633 107.76C312.066 107.338 316.426 106.831 319.711 106.24C323.038 105.607 325.44 104.743 326.914 103.646C328.388 102.506 329.125 101.009 329.125 99.1523V98.8984C329.125 96.367 328.156 94.4263 326.219 93.0762C324.281 91.726 321.796 91.0508 318.764 91.0508ZM229.886 93.9443C226.791 93.9444 223.949 94.6156 221.362 95.958C218.775 97.2543 216.696 99.0602 215.125 101.375C213.6 103.69 212.792 106.398 212.699 109.5H246.795C246.749 106.444 245.964 103.759 244.439 101.444C242.961 99.0832 240.951 97.2543 238.41 95.958C235.915 94.6154 233.074 93.9443 229.886 93.9443ZM480.886 93.9443C477.791 93.9444 474.949 94.6156 472.362 95.958C469.775 97.2543 467.696 99.0602 466.125 101.375C464.6 103.69 463.792 106.398 463.699 109.5H497.795C497.749 106.444 496.964 103.759 495.439 101.444C493.961 99.0832 491.951 97.2543 489.41 95.958C486.915 94.6154 484.074 93.9443 480.886 93.9443Z" fill="#192434"/>
<path fill-rule="evenodd" clip-rule="evenodd" d="M1208.56 66C1210.52 66 1212.45 66.1628 1214.36 66.4893C1216.32 66.7613 1218.2 67.1697 1220 67.7139V106.157C1217.77 105.395 1215.01 104.823 1211.75 104.442C1208.48 104.062 1205.67 103.871 1203.33 103.871C1198.91 103.871 1194.94 104.878 1191.39 106.892C1187.91 108.85 1185.16 111.626 1183.14 115.217C1181.12 118.754 1180.12 122.916 1180.12 127.704V193H1135V149.918C1133.57 153.164 1131.73 156.164 1129.48 158.917C1124.99 164.333 1119.06 168.546 1111.67 171.556C1104.32 174.519 1095.73 176 1085.89 176C1074.52 176 1064.73 173.824 1056.5 169.473C1048.33 165.075 1042.02 158.777 1037.58 150.583C1033.19 142.342 1031 132.481 1031 121C1031 120.52 1031.01 120.043 1031.01 119.568L1012.75 175H970.258L940 75.7275V182H901V67H975.845L990.884 125.384H991.945L1009.83 67H1048.34L1042.5 84.7334C1046.3 79.9386 1050.95 75.9854 1056.43 72.875C1064.52 68.2918 1074.06 66 1085.05 66C1093.09 66 1100.37 67.2501 1106.88 69.75C1113.4 72.25 1118.97 75.8838 1123.59 80.6523C1128.21 85.3746 1131.76 91.1157 1134.26 97.875C1134.52 98.583 1134.77 99.3006 1135 100.027V67.6328H1178.81V91.4648H1180.12C1182.4 82.6501 1186.03 76.202 1190.99 72.1211C1196 68.0402 1201.86 66 1208.56 66ZM1068.7 131.277C1068.7 134.703 1069.42 137.759 1070.85 140.444C1072.28 143.13 1074.34 145.236 1077.02 146.764C1079.7 148.291 1082.93 149.056 1086.72 149.056C1089.35 149.056 1091.75 148.685 1093.92 147.944C1096.14 147.204 1098.04 146.139 1099.61 144.75C1101.18 143.315 1102.33 141.602 1103.07 139.611H1135V129.611H1068.7V131.277ZM1085.89 92.9443C1082.79 92.9444 1079.95 93.6156 1077.36 94.958C1074.78 96.2543 1072.7 98.0602 1071.12 100.375C1069.6 102.69 1068.79 105.398 1068.7 108.5H1102.79C1102.75 105.444 1101.96 102.759 1100.44 100.444C1098.96 98.0832 1096.95 96.2543 1094.41 94.958C1091.92 93.6154 1089.07 92.9443 1085.89 92.9443Z" fill="#192434"/>
<path fill-rule="evenodd" clip-rule="evenodd" d="M765 89.7568C769.324 82.6396 775.135 77.0122 782.434 72.875C790.519 68.2918 800.059 66 811.055 66C819.093 66 826.37 67.2501 832.884 69.75C839.398 72.25 844.966 75.8838 849.586 80.6523C854.049 85.2145 857.52 90.7279 860 97.1914V24H899V152H860.012C858.755 154.457 857.243 156.763 855.476 158.917C850.994 164.333 845.058 168.546 837.666 171.556C830.32 174.519 821.726 176 811.886 176C800.521 176 790.726 173.824 782.503 169.473C775.159 165.523 769.326 160.041 765 153.03V164.559H725.415V146.402H724.548C723.007 150.149 720.792 153.511 717.902 156.489C715.061 159.419 711.593 161.749 707.5 163.479C703.455 165.16 698.832 166 693.631 166C685.733 166 678.461 163.935 671.815 159.804C665.218 155.673 659.921 149.405 655.924 140.999C651.975 132.593 650 122.001 650 109.225C650 95.8713 652.07 85.0151 656.212 76.6572C660.402 68.2995 665.796 62.1758 672.394 58.2852C679.039 54.3945 686.022 52.4492 693.342 52.4492C698.832 52.4492 703.648 53.4097 707.789 55.3311C711.931 57.2044 715.398 59.7263 718.191 62.8965C720.984 66.0185 723.103 69.4528 724.548 73.1992H725.126V24H765V89.7568ZM794.699 131.277C794.699 134.703 795.415 137.759 796.848 140.444C798.28 143.13 800.336 145.236 803.016 146.764C805.695 148.291 808.929 149.056 812.718 149.056C815.351 149.056 817.753 148.685 819.925 147.944C822.142 147.204 824.037 146.139 825.607 144.75C827.178 143.315 828.333 141.602 829.072 139.611H860V129.611H794.699V131.277ZM708.367 82.998C704.707 82.998 701.577 84.0547 698.977 86.168C696.424 88.2334 694.449 91.2361 693.053 95.1748C691.704 99.0655 691.03 103.749 691.03 109.225C691.03 114.7 691.704 119.408 693.053 123.347C694.449 127.237 696.424 130.239 698.977 132.353C701.577 134.418 704.707 135.451 708.367 135.451C712.027 135.451 715.157 134.394 717.758 132.28C720.406 130.119 722.429 127.093 723.825 123.202C725.27 119.263 725.992 114.604 725.992 109.225C725.992 103.749 725.27 99.0655 723.825 95.1748C722.429 91.2361 720.406 88.2334 717.758 86.168C715.157 84.0546 712.027 82.9981 708.367 82.998ZM811.886 92.9443C808.791 92.9444 805.949 93.6156 803.362 94.958C800.775 96.2543 798.696 98.0602 797.125 100.375C795.6 102.69 794.792 105.398 794.699 108.5H828.795C828.749 105.444 827.964 102.759 826.439 100.444C824.961 98.0832 822.951 96.2543 820.41 94.958C817.915 93.6154 815.074 92.9443 811.886 92.9443Z" fill="#192434"/>
<path d="M920.5 24C925.822 24 930.344 25.7714 934.065 29.3145C937.833 32.8575 939.718 37.1193 939.718 42.0986C939.718 47.0778 937.833 51.3389 934.065 54.8818C930.344 58.4249 925.822 60.1963 920.5 60.1963C915.225 60.1963 910.703 58.4249 906.935 54.8818C903.167 51.3389 901.282 47.0778 901.282 42.0986C901.282 37.1193 903.167 32.8575 906.935 29.3145C910.703 25.7714 915.225 24 920.5 24Z" fill="#192434"/>
<path fill-rule="evenodd" clip-rule="evenodd" d="M1452.53 66.918C1460.53 66.918 1467.48 68.7174 1473.37 72.3164C1479.31 75.8674 1483.9 80.7618 1487.14 87C1487.35 87.3959 1487.55 87.8122 1487.74 88.2461C1488.47 86.9395 1489.29 85.6883 1490.21 84.4932C1494.6 78.7895 1500.87 74.4605 1509 71.5068C1517.19 68.5023 1526.88 67 1538.08 67C1555.11 67 1568.54 70.5142 1578.36 77.542C1581.81 80.0011 1584.69 82.7911 1587 85.9111V67H1629V89.0186H1629.92C1631.45 85.0431 1633.7 81.3988 1636.66 78.0859C1639.62 74.722 1643.3 72.0464 1647.69 70.0586C1652.09 68.0198 1657.2 67 1663.02 67C1670.79 67.0001 1678.17 69.064 1685.17 73.1924C1692.22 77.3209 1697.94 83.8198 1702.33 92.6885C1706.78 101.557 1709 113.077 1709 127.246C1709 140.804 1706.88 152.042 1702.64 160.962C1698.45 169.882 1692.83 176.534 1685.78 180.917C1678.78 185.3 1671.09 187.491 1662.71 187.491C1657.2 187.491 1652.27 186.599 1647.92 184.815C1643.63 182.981 1639.95 180.508 1636.89 177.399C1633.87 174.239 1631.55 170.672 1629.92 166.696H1629.3V230H1587V171.637C1582.39 176.408 1576.49 180.209 1569.3 183.035C1560.81 186.345 1551.12 188 1540.23 188C1522.22 188 1508.13 184.333 1497.96 177C1495.76 175.41 1493.77 173.709 1492 171.898V183H1451.35V120.3C1451.31 115.072 1449.88 110.946 1447.08 107.925C1444.23 104.806 1440.25 103.246 1435.15 103.246C1431.81 103.246 1428.89 103.967 1426.38 105.406C1423.93 106.798 1422.04 108.813 1420.71 111.452C1419.39 114.043 1418.7 117.163 1418.65 120.81V183H1378L1378.36 67H1416.95L1416.59 89.375H1417.77C1420.22 82.3691 1424.54 76.8744 1430.73 72.8916C1436.96 68.9089 1444.23 66.918 1452.53 66.918ZM1492 147.973H1523.04C1523.6 151.69 1525.45 154.568 1528.57 156.604C1531.74 158.59 1535.73 159.583 1540.53 159.583C1544.42 159.583 1547.62 158.922 1550.12 157.598C1552.68 156.274 1553.99 154.389 1554.04 151.944C1553.99 149.704 1552.86 147.922 1550.66 146.598C1548.51 145.274 1545.14 144.203 1540.53 143.389L1519.67 139.723C1507.65 137.635 1498.65 133.662 1492.66 127.806C1492.44 127.585 1492.22 127.36 1492 127.135V147.973ZM1647.08 99.417C1643.2 99.4171 1639.85 100.538 1637.04 102.78C1634.28 104.972 1632.14 108.158 1630.6 112.337C1629.12 116.465 1628.38 121.436 1628.38 127.246C1628.38 132.955 1629.12 137.899 1630.6 142.078C1632.14 146.206 1634.28 149.417 1637.04 151.711C1639.85 153.954 1643.2 155.075 1647.08 155.075C1650.96 155.075 1654.26 153.979 1656.97 151.787C1659.72 149.544 1661.82 146.359 1663.25 142.23C1664.73 138.051 1665.47 133.056 1665.47 127.246C1665.47 121.436 1664.73 116.465 1663.25 112.337C1661.82 108.158 1659.72 104.972 1656.97 102.78C1654.26 100.538 1650.96 99.417 1647.08 99.417ZM1539 95.1113C1535.37 95.1113 1532.25 95.7736 1529.64 97.0977C1527.03 98.4217 1525.75 100.306 1525.8 102.75C1525.75 104.481 1526.49 106.086 1528.03 107.562C1529.61 109.039 1532.66 110.185 1537.16 111L1561.1 115.277C1572.49 117.344 1581.12 120.749 1587 125.491V106.723H1554.96C1554.75 104.329 1553.91 102.267 1552.43 100.535C1550.94 98.8037 1549.02 97.4792 1546.67 96.5625C1544.37 95.5949 1541.81 95.1113 1539 95.1113Z" fill="#192434"/>
<path fill-rule="evenodd" clip-rule="evenodd" d="M1793.81 92.4648H1795.12C1797.4 83.6501 1801.03 77.202 1805.99 73.1211C1811 69.0402 1816.86 67 1823.56 67C1825.52 67 1827.45 67.1628 1829.36 67.4893C1831.32 67.7613 1833.2 68.1697 1835 68.7139V76.0068C1836.11 75.2574 1837.25 74.5461 1838.43 73.875C1846.52 69.2918 1856.06 67 1867.05 67C1875.09 67 1882.37 68.2501 1888.88 70.75C1895.4 73.25 1900.97 76.8838 1905.59 81.6523C1910.21 86.3746 1913.76 92.1157 1916.26 98.875C1918.75 105.634 1920 113.25 1920 121.723V130.611H1850.7V132.277C1850.7 135.703 1851.42 138.759 1852.85 141.444C1854.28 144.13 1856.34 146.236 1859.02 147.764C1861.7 149.291 1864.93 150.056 1868.72 150.056C1871.35 150.056 1873.75 149.685 1875.92 148.944C1878.14 148.204 1880.04 147.139 1881.61 145.75C1883.18 144.315 1884.33 142.602 1885.07 140.611H1920C1918.8 148.019 1915.96 154.454 1911.48 159.917C1907 165.334 1901.06 169.546 1893.67 172.556C1886.32 175.519 1877.73 177 1867.89 177C1856.52 177 1846.73 174.824 1838.5 170.473C1830.33 166.075 1824.02 159.777 1819.58 151.583C1815.19 143.342 1813 133.481 1813 122C1813 115.936 1813.67 110.294 1815.02 105.071C1811.9 105.455 1809.03 106.395 1806.39 107.892C1802.91 109.85 1800.16 112.626 1798.14 116.217C1796.12 119.754 1795.12 123.916 1795.12 128.704V194H1750V67H1793.81V92.4648ZM1867.89 93.9443C1864.79 93.9444 1861.95 94.6156 1859.36 95.958C1856.78 97.2543 1854.7 99.0602 1853.12 101.375C1851.6 103.69 1850.79 106.398 1850.7 109.5H1884.79C1884.75 106.444 1883.96 103.759 1882.44 101.444C1880.96 99.0832 1878.95 97.2543 1876.41 95.958C1873.92 94.6154 1871.07 93.9443 1867.89 93.9443Z" fill="#192434"/>
<path d="M1376 183H1337V67H1376V183Z" fill="#192434"/>
<path d="M1748 183H1709V67H1748V183Z" fill="#192434"/>
<path d="M1356.5 25C1361.82 25 1366.34 26.7714 1370.07 30.3145C1373.83 33.8575 1375.72 38.1193 1375.72 43.0986C1375.72 48.0778 1373.83 52.3389 1370.07 55.8818C1366.34 59.4249 1361.82 61.1963 1356.5 61.1963C1351.22 61.1963 1346.7 59.4249 1342.93 55.8818C1339.17 52.3389 1337.28 48.0778 1337.28 43.0986C1337.28 38.1193 1339.17 33.8575 1342.93 30.3145C1346.7 26.7714 1351.22 25 1356.5 25Z" fill="#192434"/>
<path d="M1728.5 25C1733.82 25 1738.34 26.7714 1742.07 30.3145C1745.83 33.8575 1747.72 38.1193 1747.72 43.0986C1747.72 48.0778 1745.83 52.3389 1742.07 55.8818C1738.34 59.4249 1733.82 61.1963 1728.5 61.1963C1723.22 61.1963 1718.7 59.4249 1714.93 55.8818C1711.17 52.3389 1709.28 48.0778 1709.28 43.0986C1709.28 38.1193 1711.17 33.8575 1714.93 30.3145C1718.7 26.7714 1723.22 25 1728.5 25Z" fill="#192434"/>
</g>
<defs>
<clipPath id="clip0_287_25149">
<rect width="1920" height="144" fill="white"/>
</clipPath>
</defs>
</svg>
