<svg width="24" height="24" viewBox="0 0 24 24" fill="none" xmlns="http://www.w3.org/2000/svg">
<path fill-rule="evenodd" clip-rule="evenodd" d="M0 2.005C0 1.47324 0.211242 0.963262 0.587252 0.587252C0.963262 0.211242 1.47324 0 2.005 0H21.9949C22.2583 0 22.519 0.0518641 22.7622 0.152625C23.0055 0.253386 23.2265 0.401069 23.4127 0.587252C23.5989 0.773435 23.7466 0.994463 23.8474 1.23771C23.9481 1.48098 24 1.74169 24 2.005V21.9949C24 22.2583 23.9481 22.519 23.8474 22.7622C23.7466 23.0055 23.5989 23.2265 23.4127 23.4127C23.2265 23.5989 23.0055 23.7466 22.7622 23.8474C22.519 23.9481 22.2583 24 21.9949 24H2.005C1.47324 24 0.963262 23.7887 0.587252 23.4127C0.211242 23.0367 0 22.5268 0 21.9949V2.005ZM9.49998 9.14999H12.75V10.783C13.2185 9.84394 14.419 8.99998 16.2224 8.99998C19.6795 8.99998 20.5 10.869 20.5 14.2984V20.65H17V15.0794C17 13.1265 16.5315 12.025 15.34 12.025C13.6875 12.025 13 13.2125 13 15.0794V20.65H9.49998V9.14999ZM3.49999 20.5H6.99999V8.99998H3.49999V20.5ZM7.49999 5.24999C7.49999 5.54546 7.44179 5.83805 7.32872 6.11103C7.21564 6.38401 7.04991 6.63205 6.84098 6.84098C6.63205 7.04991 6.38401 7.21564 6.11103 7.32872C5.83805 7.44179 5.54546 7.49999 5.24999 7.49999C4.95452 7.49999 4.66194 7.44179 4.38896 7.32872C4.11597 7.21564 3.86794 7.04991 3.659 6.84098C3.45007 6.63205 3.28434 6.38401 3.17126 6.11103C3.0582 5.83805 2.99999 5.54546 2.99999 5.24999C2.99999 4.65325 3.23705 4.08096 3.659 3.659C4.08096 3.23705 4.65325 2.99999 5.24999 2.99999C5.84673 2.99999 6.41903 3.23705 6.84098 3.659C7.26294 4.08096 7.49999 4.65325 7.49999 5.24999Z" fill="#192434"/>
</svg>
