<svg width="136" height="60" viewBox="0 0 136 60" fill="none" xmlns="http://www.w3.org/2000/svg">
<g clip-path="url(#clip0_949_33790)">
<path fill-rule="evenodd" clip-rule="evenodd" d="M0.082 15.6934L25.622 30.5084L25.54 60.0004L0 45.1864L0.082 15.6934Z" fill="#F15A29"/>
<path fill-rule="evenodd" clip-rule="evenodd" d="M0.225098 16.377L25.2871 30.721L24.9171 58.64L0.727098 44.574L0.225098 16.377Z" fill="url(#paint0_linear_949_33790)"/>
<path fill-rule="evenodd" clip-rule="evenodd" d="M26.5469 59.9944L26.6289 30.5074L51.9999 15.6934L51.9179 45.1804L26.5469 59.9944Z" fill="#FBB040"/>
<path fill-rule="evenodd" clip-rule="evenodd" d="M27.0459 59.1246L27.1249 30.7936L51.5019 16.5596L51.4219 44.8896L27.0459 59.1246Z" fill="url(#paint1_linear_949_33790)"/>
<path fill-rule="evenodd" clip-rule="evenodd" d="M26.1269 29.631L0.586914 14.817L25.9669 0L51.5029 14.814L26.1269 29.631Z" fill="#F9ED32"/>
<path fill-rule="evenodd" clip-rule="evenodd" d="M26.1221 28.7724L2.06006 14.8164L25.9701 0.857422L50.0271 14.8144L26.1221 28.7724Z" fill="url(#paint2_linear_949_33790)"/>
<path d="M60 28.811V14H63.188V20.111H69.659V14H72.839V28.811H69.659V22.693H63.188V28.811H60ZM77.804 29.021C77.083 29.021 76.44 28.898 75.876 28.652C75.3328 28.4189 74.8678 28.0351 74.536 27.546C74.212 27.054 74.05 26.442 74.05 25.709C74.05 25.092 74.165 24.573 74.396 24.154C74.626 23.734 74.94 23.397 75.338 23.142C75.736 22.886 76.188 22.693 76.693 22.562C77.2201 22.4292 77.7567 22.3376 78.298 22.288C78.955 22.221 79.486 22.158 79.888 22.1C80.29 22.037 80.582 21.946 80.764 21.825C80.8523 21.7676 80.924 21.6879 80.9717 21.594C81.0195 21.5 81.0416 21.3952 81.036 21.29V21.247C81.036 20.789 80.889 20.434 80.595 20.183C80.305 19.933 79.893 19.807 79.358 19.807C78.793 19.807 78.344 19.93 78.011 20.177C77.6929 20.3961 77.4591 20.7171 77.348 21.087L74.448 20.857C74.5817 20.2083 74.8807 19.6052 75.316 19.106C75.748 18.609 76.305 18.228 76.987 17.963C77.674 17.693 78.47 17.558 79.373 17.558C80.001 17.558 80.602 17.631 81.176 17.775C81.756 17.92 82.268 18.144 82.715 18.448C83.1607 18.7456 83.527 19.1476 83.782 19.619C84.042 20.092 84.172 20.659 84.172 21.319V28.811H81.198V27.271H81.11C80.9267 27.62 80.6794 27.9314 80.381 28.189C80.0569 28.4606 79.6848 28.6692 79.284 28.804C78.857 28.949 78.364 29.021 77.804 29.021ZM78.703 26.895C79.164 26.895 79.571 26.805 79.925 26.627C80.278 26.444 80.555 26.198 80.757 25.89C80.957 25.581 81.058 25.232 81.058 24.841V23.662C80.96 23.725 80.825 23.782 80.654 23.836C80.4668 23.889 80.2777 23.9347 80.087 23.973C79.8764 24.0117 79.6654 24.048 79.454 24.082C79.243 24.111 79.051 24.137 78.879 24.162C78.5482 24.2045 78.2243 24.2892 77.915 24.414C77.6643 24.5121 77.4436 24.6742 77.275 24.884C77.122 25.077 77.046 25.318 77.046 25.608C77.046 26.028 77.201 26.348 77.51 26.57C77.824 26.786 78.222 26.895 78.703 26.895ZM85.777 28.811V17.703H88.817V19.641H88.935C89.141 18.951 89.487 18.431 89.973 18.079C90.4592 17.7221 91.0489 17.5342 91.652 17.544C91.9835 17.546 92.3139 17.5822 92.638 17.652V20.386C92.4378 20.3322 92.2339 20.2935 92.028 20.27C91.791 20.2381 91.5522 20.2214 91.313 20.22C90.852 20.22 90.439 20.319 90.076 20.516C89.7233 20.7037 89.4281 20.9837 89.222 21.326C89.016 21.673 88.912 22.073 88.912 22.526V28.811H85.777ZM102.839 20.87L99.969 21.044C99.9201 20.804 99.811 20.5803 99.652 20.394C99.4791 20.1883 99.2592 20.0271 99.011 19.924C98.7163 19.7958 98.3972 19.7337 98.076 19.742C97.59 19.742 97.18 19.844 96.846 20.046C96.513 20.244 96.346 20.509 96.346 20.842C96.346 21.107 96.454 21.331 96.67 21.514C96.886 21.698 97.256 21.844 97.781 21.955L99.828 22.36C100.928 22.582 101.747 22.939 102.287 23.43C102.827 23.923 103.097 24.569 103.097 25.369C103.108 26.0644 102.877 26.7419 102.442 27.285C102.01 27.835 101.416 28.265 100.66 28.573C99.91 28.877 99.043 29.029 98.061 29.029C96.564 29.029 95.371 28.722 94.483 28.11C93.6 27.493 93.082 26.654 92.93 25.593L96.015 25.434C96.108 25.882 96.334 26.224 96.692 26.461C97.05 26.693 97.509 26.808 98.069 26.808C98.619 26.808 99.06 26.704 99.394 26.498C99.732 26.285 99.904 26.013 99.909 25.68C99.9081 25.5451 99.875 25.4123 99.8124 25.2928C99.7497 25.1733 99.6594 25.0705 99.549 24.993C99.313 24.81 98.949 24.67 98.459 24.573L96.5 24.19C95.396 23.973 94.574 23.597 94.034 23.062C93.499 22.527 93.232 21.844 93.232 21.015C93.232 20.302 93.428 19.687 93.821 19.171C94.218 18.655 94.775 18.257 95.491 17.978C96.213 17.698 97.058 17.558 98.024 17.558C99.453 17.558 100.577 17.855 101.396 18.448C102.221 19.041 102.702 19.847 102.839 20.87ZM107.379 22.39V28.811H104.243V14H107.291V19.663H107.423C107.66 19.0305 108.094 18.4907 108.66 18.123C109.229 17.746 109.943 17.558 110.802 17.558C111.588 17.558 112.272 17.727 112.856 18.064C113.446 18.3972 113.923 18.8985 114.226 19.504C114.555 20.126 114.717 20.871 114.712 21.738V28.811H111.575V22.288C111.58 21.603 111.404 21.071 111.045 20.69C110.692 20.309 110.196 20.118 109.558 20.118C109.131 20.118 108.753 20.208 108.424 20.386C108.098 20.5661 107.832 20.8376 107.659 21.167C107.477 21.505 107.384 21.913 107.379 22.39ZM119.575 29.021C118.854 29.021 118.211 28.898 117.646 28.652C117.103 28.4188 116.638 28.035 116.306 27.546C115.982 27.054 115.82 26.442 115.82 25.709C115.82 25.092 115.936 24.573 116.166 24.154C116.397 23.734 116.711 23.397 117.109 23.142C117.526 22.8773 117.983 22.6815 118.463 22.562C118.99 22.4299 119.527 22.3383 120.068 22.288C120.726 22.221 121.256 22.158 121.659 22.1C122.061 22.037 122.353 21.946 122.535 21.825C122.623 21.7674 122.695 21.6877 122.742 21.5938C122.79 21.4999 122.812 21.3952 122.807 21.29V21.247C122.807 20.789 122.66 20.434 122.365 20.183C122.076 19.933 121.664 19.807 121.129 19.807C120.564 19.807 120.115 19.93 119.781 20.177C119.463 20.3964 119.23 20.7173 119.119 21.087L116.218 20.857C116.352 20.2082 116.651 19.605 117.087 19.106C117.519 18.609 118.076 18.228 118.758 17.963C119.445 17.693 120.24 17.558 121.143 17.558C121.772 17.558 122.373 17.631 122.947 17.775C123.496 17.9065 124.017 18.1343 124.486 18.448C124.937 18.751 125.293 19.142 125.553 19.619C125.813 20.092 125.943 20.659 125.943 21.319V28.811H122.969V27.271H122.881C122.697 27.6199 122.45 27.9312 122.152 28.189C121.848 28.449 121.482 28.655 121.055 28.804C120.628 28.949 120.135 29.021 119.575 29.021ZM120.473 26.895C120.935 26.895 121.342 26.805 121.695 26.627C122.049 26.444 122.326 26.198 122.527 25.89C122.729 25.581 122.829 25.232 122.829 24.841V23.662C122.731 23.725 122.596 23.782 122.424 23.836C122.237 23.8891 122.048 23.9348 121.857 23.973C121.646 24.0118 121.435 24.0481 121.224 24.082C121.013 24.111 120.822 24.137 120.65 24.162C120.319 24.2045 119.995 24.2892 119.686 24.414C119.435 24.5119 119.214 24.674 119.045 24.884C118.893 25.077 118.817 25.318 118.817 25.608C118.817 26.028 118.971 26.348 119.281 26.57C119.595 26.786 119.992 26.895 120.473 26.895ZM60 45.783V30.971H65.949C67.092 30.971 68.067 31.186 68.871 31.615C69.676 32.039 70.29 32.63 70.712 33.387C71.139 34.139 71.352 35.007 71.352 35.991C71.352 36.974 71.136 37.842 70.705 38.594C70.273 39.346 69.647 39.932 68.827 40.352C68.013 40.772 67.026 40.981 65.867 40.981H62.077V38.471H65.352C65.966 38.471 66.472 38.368 66.869 38.161C67.2514 37.9684 67.565 37.6625 67.767 37.285C67.968 36.909 68.069 36.478 68.069 35.991C68.069 35.499 67.969 35.07 67.767 34.703C67.5666 34.3282 67.2521 34.027 66.869 33.843C66.466 33.635 65.956 33.532 65.338 33.532H63.188V45.783H60ZM77.506 46C76.343 46 75.342 45.769 74.502 45.306C73.6786 44.8491 73.008 44.1597 72.574 43.324C72.122 42.466 71.896 41.451 71.896 40.279C71.896 39.137 72.122 38.134 72.574 37.271C73.004 36.4304 73.6653 35.7302 74.48 35.253C75.305 34.771 76.272 34.53 77.381 34.53C78.127 34.53 78.821 34.648 79.465 34.884C80.0987 35.1069 80.6763 35.4648 81.158 35.933C81.644 36.401 82.022 36.989 82.292 37.697C82.562 38.401 82.697 39.226 82.697 40.171V41.017H73.147V39.107H79.744C79.744 38.664 79.646 38.271 79.45 37.929C79.2576 37.5906 78.9747 37.3125 78.633 37.126C78.289 36.928 77.889 36.83 77.433 36.83C76.956 36.83 76.534 36.938 76.166 37.155C75.803 37.367 75.519 37.655 75.312 38.015C75.1042 38.3786 74.9953 38.7902 74.996 39.209V41.024C74.996 41.574 75.099 42.049 75.305 42.449C75.516 42.849 75.813 43.158 76.195 43.375C76.579 43.592 77.033 43.7 77.558 43.7C77.906 43.7 78.225 43.652 78.515 43.555C78.7917 43.4706 79.0453 43.3236 79.256 43.1254C79.4667 42.9272 79.6289 42.683 79.73 42.412L82.63 42.601C82.4918 43.2683 82.1796 43.8872 81.725 44.395C81.273 44.901 80.689 45.296 79.973 45.58C79.261 45.86 78.439 46 77.506 46ZM88.081 45.964C87.2569 45.9738 86.4471 45.748 85.747 45.313C85.055 44.874 84.505 44.23 84.098 43.382C83.696 42.529 83.494 41.482 83.494 40.243C83.494 38.97 83.703 37.912 84.12 37.068C84.537 36.22 85.092 35.586 85.784 35.166C86.4729 34.7441 87.2662 34.5237 88.074 34.53C88.707 34.53 89.234 34.636 89.656 34.848C90.083 35.055 90.427 35.316 90.687 35.629C90.952 35.938 91.153 36.241 91.291 36.54H91.387V30.971H94.516V45.783H91.423V44.003H91.291C91.1267 44.3376 90.9159 44.6473 90.665 44.923C90.3743 45.2402 90.0208 45.4936 89.627 45.667C89.205 45.865 88.69 45.964 88.081 45.964ZM89.075 43.512C89.58 43.512 90.007 43.377 90.355 43.107C90.709 42.832 90.979 42.449 91.165 41.957C91.357 41.465 91.453 40.889 91.453 40.229C91.453 39.569 91.36 38.994 91.173 38.508C90.987 38.02 90.717 37.644 90.363 37.379C90.01 37.114 89.58 36.981 89.075 36.981C88.559 36.981 88.125 37.119 87.772 37.394C87.418 37.669 87.151 38.049 86.969 38.536C86.788 39.023 86.697 39.587 86.697 40.229C86.697 40.875 86.787 41.446 86.969 41.943C87.156 42.435 87.423 42.82 87.772 43.1C88.125 43.375 88.559 43.512 89.075 43.512ZM100.432 45.964C99.6079 45.9738 98.7981 45.748 98.098 45.313C97.406 44.874 96.856 44.23 96.448 43.382C96.047 42.529 95.845 41.482 95.845 40.243C95.845 38.97 96.054 37.912 96.471 37.068C96.888 36.22 97.443 35.586 98.135 35.166C98.8239 34.7441 99.6172 34.5237 100.425 34.53C101.058 34.53 101.585 34.636 102.007 34.848C102.434 35.055 102.778 35.316 103.038 35.629C103.303 35.938 103.504 36.241 103.642 36.54H103.738V30.971H106.866V45.783H103.774V44.003H103.642C103.478 44.3376 103.267 44.6474 103.016 44.923C102.725 45.2402 102.372 45.4936 101.978 45.667C101.556 45.865 101.04 45.964 100.432 45.964ZM101.426 43.512C101.931 43.512 102.358 43.377 102.707 43.107C103.06 42.832 103.33 42.449 103.517 41.957C103.708 41.465 103.804 40.889 103.804 40.229C103.804 39.569 103.711 38.994 103.524 38.508C103.337 38.02 103.068 37.644 102.714 37.379C102.361 37.114 101.931 36.981 101.426 36.981C100.91 36.981 100.476 37.119 100.123 37.394C99.769 37.669 99.502 38.049 99.32 38.536C99.139 39.023 99.048 39.587 99.048 40.229C99.048 40.875 99.138 41.446 99.32 41.943C99.507 42.435 99.774 42.82 100.123 43.1C100.476 43.375 100.91 43.512 101.426 43.512ZM108.616 45.783V34.674H111.752V45.783H108.616ZM110.191 33.243C109.725 33.243 109.325 33.091 108.991 32.787C108.835 32.6483 108.71 32.4778 108.625 32.2869C108.54 32.0959 108.496 31.889 108.498 31.68C108.498 31.256 108.662 30.892 108.991 30.588C109.315 30.2831 109.746 30.117 110.191 30.125C110.658 30.125 111.055 30.28 111.384 30.588C111.718 30.892 111.885 31.256 111.885 31.68C111.885 32.11 111.718 32.478 111.384 32.787C111.061 33.0885 110.633 33.2527 110.191 33.243ZM116.571 39.36V45.783H113.435V34.674H116.424V36.634H116.557C116.807 35.988 117.227 35.477 117.816 35.101C118.405 34.721 119.119 34.53 119.958 34.53C120.743 34.53 121.428 34.699 122.012 35.036C122.596 35.373 123.05 35.856 123.374 36.482C123.698 37.104 123.86 37.847 123.86 38.71V45.783H120.724V39.26C120.729 38.58 120.552 38.05 120.194 37.669C119.835 37.283 119.342 37.09 118.714 37.09C118.292 37.09 117.919 37.18 117.595 37.357C117.276 37.536 117.025 37.797 116.844 38.139C116.667 38.476 116.576 38.882 116.571 39.36ZM131.517 34.674V36.989H124.707V34.674H131.517ZM126.253 32.013H129.39V42.369C129.39 42.654 129.434 42.876 129.522 43.035C129.603 43.1826 129.733 43.2975 129.89 43.36C130.052 43.423 130.239 43.454 130.45 43.454C130.597 43.454 130.744 43.442 130.892 43.418L131.23 43.353L131.724 45.646C131.505 45.7098 131.284 45.7651 131.061 45.812C130.72 45.8864 130.372 45.9276 130.023 45.935C129.267 45.964 128.604 45.865 128.035 45.638C127.496 45.4323 127.036 45.0634 126.717 44.583C126.403 44.105 126.249 43.503 126.253 42.774V32.013ZM132.731 45.783V34.674H135.867V45.783H132.731ZM134.307 33.243C133.84 33.243 133.44 33.091 133.107 32.787C132.778 32.478 132.613 32.109 132.613 31.68C132.613 31.256 132.778 30.892 133.107 30.588C133.431 30.2827 133.862 30.1165 134.307 30.125C134.773 30.125 135.171 30.28 135.499 30.588C135.833 30.892 136 31.256 136 31.68C136 32.11 135.833 32.478 135.499 32.787C135.176 33.0884 134.748 33.2527 134.307 33.243Z" fill="#192434"/>
</g>
<defs>
<linearGradient id="paint0_linear_949_33790" x1="-20.3249" y1="66.777" x2="21.1951" y2="34.488" gradientUnits="userSpaceOnUse">
<stop stop-color="#FDFDFD"/>
<stop offset="1" stop-color="#F15A29" stop-opacity="0.5"/>
</linearGradient>
<linearGradient id="paint1_linear_949_33790" x1="-18.4611" y1="66.6776" x2="51.6539" y2="28.4286" gradientUnits="userSpaceOnUse">
<stop stop-color="white"/>
<stop offset="1" stop-color="#FBB040" stop-opacity="0.4"/>
</linearGradient>
<linearGradient id="paint2_linear_949_33790" x1="21.1421" y1="24.9214" x2="26.0871" y2="7.72842" gradientUnits="userSpaceOnUse">
<stop stop-opacity="0.08"/>
<stop offset="1" stop-color="#F9ED32" stop-opacity="0"/>
</linearGradient>
<clipPath id="clip0_949_33790">
<rect width="136" height="60" fill="white"/>
</clipPath>
</defs>
</svg>
