<svg xmlns="http://www.w3.org/2000/svg" width="110" height="125" viewBox="-2 -2 110 125" fill="none"><defs><clipPath id="s0c"><path d="M44.82 4.53C49.10 2.04 56.11 2.03 60.39 4.51L96.51 25.39C100.79 27.87 104.30 33.95 104.30 38.90L104.30 82.10C104.30 87.05 100.80 93.14 96.52 95.63L60.68 116.47C56.40 118.96 49.39 118.97 45.11 116.49L8.99 95.61C4.71 93.13 1.20 87.05 1.20 82.10L1.20 38.90C1.20 33.95 4.70 27.86 8.98 25.37Z"/></clipPath><linearGradient id="s0t" gradientUnits="userSpaceOnUse" x1="52.6" y1="0" x2="52.900000000000006" y2="59.8"><stop offset="0" stop-color="#FFF1A0"/><stop offset="0.45" stop-color="#FFE03A"/><stop offset="1" stop-color="#FFDA30"/></linearGradient><linearGradient id="s0l" gradientUnits="userSpaceOnUse" x1="1.2000000000000028" y1="32.96" x2="27.050000000000004" y2="106.05"><stop offset="0" stop-color="#F87A50"/><stop offset="0.45" stop-color="#F2542D"/><stop offset="1" stop-color="#D8421E"/></linearGradient><linearGradient id="s0r" gradientUnits="userSpaceOnUse" x1="52.900000000000006" y1="62.86" x2="78.75" y2="135.95"><stop offset="0" stop-color="#FDC06A"/><stop offset="0.45" stop-color="#FBA531"/><stop offset="1" stop-color="#EC8C22"/></linearGradient><radialGradient id="s0s" gradientUnits="userSpaceOnUse" cx="52.6" cy="20" r="34"><stop offset="0" stop-color="#FFFFFF" stop-opacity="0.25"/><stop offset="1" stop-color="#FFFFFF" stop-opacity="0"/></radialGradient><filter id="s0b" filterUnits="userSpaceOnUse" x="-30" y="-30" width="170" height="185"><feGaussianBlur stdDeviation="2"/></filter><filter id="s0a" filterUnits="userSpaceOnUse" x="-30" y="-30" width="170" height="185"><feGaussianBlur stdDeviation="3.2"/></filter><filter id="s0m" filterUnits="userSpaceOnUse" x="-30" y="-30" width="170" height="185"><feGaussianBlur stdDeviation="0"/></filter></defs><g clip-path="url(#s0c)"><path d="M52.60 0.00L104.30 29.90L52.90 59.80L1.20 29.90Z" fill="url(#s0t)"/><path d="M1.20 29.90L52.90 59.80L52.90 121.00L1.20 91.10Z" fill="url(#s0l)"/><path d="M52.90 59.80L104.30 29.90L104.30 91.10L52.90 121.00Z" fill="url(#s0r)"/><path d="M52.60 0.00L104.30 29.90L52.90 59.80L1.20 29.90Z" fill="url(#s0s)"/><path d="M1.20 91.10L52.90 121.00L104.30 91.10" stroke="#7A2A10" stroke-width="11.2" stroke-linecap="round" stroke-linejoin="round" fill="none" opacity="0.2" filter="url(#s0a)"/><path d="M104.30 29.90L52.90 59.80L1.20 29.90" stroke="#FFF6C4" stroke-width="4.8" stroke-linecap="round" stroke-linejoin="round" fill="none" opacity="0.85"/><path d="M52.90 59.80L52.90 121.00" stroke="#FFD9A0" stroke-width="3.4" stroke-linecap="round" fill="none" opacity="0.5"/></g></svg>
