<svg width="18" height="18" viewBox="0 0 18 18" fill="none" xmlns="http://www.w3.org/2000/svg">
<path d="M9.01151 0C9.24464 0 9.42857 0.195443 9.42857 0.428571C9.42857 4.92575 13.0743 8.57143 17.5714 8.57143C17.8046 8.57143 18 8.75536 18 8.98849V9.0107C18 9.24381 17.8045 9.42857 17.5714 9.42857C13.0743 9.42857 9.42857 13.0743 9.42857 17.5714C9.42857 17.8046 9.24464 18 9.01151 18H8.98849C8.75536 18 8.57143 17.8046 8.57143 17.5714C8.57143 13.0743 4.92575 9.42857 0.428571 9.42857C0.195454 9.42857 0 9.24381 0 9.0107V8.98849C0 8.75536 0.195443 8.57143 0.428571 8.57143C4.92575 8.57143 8.57143 4.92575 8.57143 0.428571C8.57143 0.195443 8.75536 0 8.98849 0H9.01151Z" fill="#D9D9D9"/>
</svg>
