<svg width="16" height="16" viewBox="0 0 16 16" fill="none" xmlns="http://www.w3.org/2000/svg">
<g clip-path="url(#clip0_840_19571)">
<path d="M7.65705 6.24746C7.76706 5.91746 8.23306 5.91746 8.34306 6.24746L8.98805 8.18446C9.13003 8.61026 9.36923 8.99714 9.6867 9.31443C10.0042 9.63173 10.3912 9.87072 10.8171 10.0125L12.7531 10.6575C13.0831 10.7675 13.0831 11.2335 12.7531 11.3435L10.8161 11.9885C10.3903 12.1304 10.0034 12.3696 9.68608 12.6871C9.36878 13.0046 9.12979 13.3916 8.98805 13.8175L8.34306 15.7535C8.31934 15.8257 8.27341 15.8886 8.21181 15.9333C8.15022 15.9779 8.07611 16.0019 8.00005 16.0019C7.924 16.0019 7.84989 15.9779 7.7883 15.9333C7.7267 15.8886 7.68077 15.8257 7.65705 15.7535L7.01205 13.8165C6.87018 13.3908 6.63114 13.004 6.31385 12.6867C5.99656 12.3694 5.60975 12.1303 5.18405 11.9885L3.24705 11.3435C3.17479 11.3197 3.11187 11.2738 3.06726 11.2122C3.02264 11.1506 2.99862 11.0765 2.99862 11.0005C2.99862 10.9244 3.02264 10.8503 3.06726 10.7887C3.11187 10.7271 3.17479 10.6812 3.24705 10.6575L5.18405 10.0125C5.60975 9.87058 5.99656 9.63154 6.31385 9.31425C6.63114 8.99696 6.87018 8.61015 7.01205 8.18446L7.65705 6.24746ZM3.79405 1.14846C3.80839 1.10515 3.83602 1.06747 3.873 1.04076C3.90998 1.01405 3.95444 0.999669 4.00005 0.999669C4.04567 0.999669 4.09013 1.01405 4.12711 1.04076C4.16409 1.06747 4.19171 1.10515 4.20605 1.14846L4.59305 2.31046C4.76605 2.82846 5.17205 3.23446 5.69005 3.40746L6.85206 3.79446C6.89536 3.8088 6.93305 3.83642 6.95976 3.8734C6.98647 3.91038 7.00084 3.95484 7.00084 4.00046C7.00084 4.04607 6.98647 4.09053 6.95976 4.12751C6.93305 4.16449 6.89536 4.19212 6.85206 4.20646L5.69005 4.59346C5.43443 4.67829 5.20214 4.82165 5.01169 5.01209C4.82124 5.20254 4.67789 5.43483 4.59305 5.69046L4.20605 6.85246C4.19171 6.89576 4.16409 6.93345 4.12711 6.96016C4.09013 6.98687 4.04567 7.00124 4.00005 7.00124C3.95444 7.00124 3.90998 6.98687 3.873 6.96016C3.83602 6.93345 3.80839 6.89576 3.79405 6.85246L3.40705 5.69046C3.32222 5.43483 3.17886 5.20254 2.98842 5.01209C2.79797 4.82165 2.56568 4.67829 2.31005 4.59346L1.14805 4.20646C1.10475 4.19212 1.06706 4.16449 1.04035 4.12751C1.01364 4.09053 0.999268 4.04607 0.999268 4.00046C0.999268 3.95484 1.01364 3.91038 1.04035 3.8734C1.06706 3.83642 1.10475 3.8088 1.14805 3.79446L2.31005 3.40746C2.56568 3.32262 2.79797 3.17927 2.98842 2.98882C3.17886 2.79837 3.32222 2.56608 3.40705 2.31046L3.79405 1.14846ZM10.8631 0.0994558C10.8729 0.0709821 10.8914 0.0462917 10.916 0.0288174C10.9405 0.011343 10.9699 0.00195312 11.0001 0.00195312C11.0302 0.00195313 11.0596 0.011343 11.0841 0.0288174C11.1087 0.0462917 11.1272 0.0709821 11.1371 0.0994558L11.3951 0.873456C11.5101 1.21946 11.7811 1.49046 12.1271 1.60546L12.9011 1.86346C12.9295 1.87333 12.9542 1.89183 12.9717 1.91638C12.9892 1.94093 12.9986 1.97032 12.9986 2.00046C12.9986 2.03059 12.9892 2.05998 12.9717 2.08453C12.9542 2.10909 12.9295 2.12758 12.9011 2.13746L12.1271 2.39546C11.9567 2.45246 11.8019 2.54824 11.6749 2.67527C11.5478 2.8023 11.4521 2.95709 11.3951 3.12746L11.1371 3.90146C11.1272 3.92993 11.1087 3.95462 11.0841 3.97209C11.0596 3.98957 11.0302 3.99896 11.0001 3.99896C10.9699 3.99896 10.9405 3.98957 10.916 3.97209C10.8914 3.95462 10.8729 3.92993 10.8631 3.90146L10.6051 3.12746C10.5481 2.95709 10.4523 2.8023 10.3252 2.67527C10.1982 2.54824 10.0434 2.45246 9.87305 2.39546L9.10005 2.13746C9.07158 2.12758 9.04689 2.10909 9.02942 2.08453C9.01194 2.05998 9.00255 2.03059 9.00255 2.00046C9.00255 1.97032 9.01194 1.94093 9.02942 1.91638C9.04689 1.89183 9.07158 1.87333 9.10005 1.86346L9.87405 1.60546C10.2201 1.49046 10.4911 1.21946 10.6061 0.873456L10.8631 0.0994558Z" fill="#845200"/>
</g>
<defs>
<clipPath id="clip0_840_19571">
<rect width="16" height="16" fill="white"/>
</clipPath>
</defs>
</svg>
