<svg width="24" height="24" viewBox="0 0 24 24" fill="none" xmlns="http://www.w3.org/2000/svg">
<path d="M7.86328 5.53906L17.7373 18.376H16.207L6.22266 5.53906H7.86328Z" fill="#192434"/>
<path fill-rule="evenodd" clip-rule="evenodd" d="M22 0C23.1046 0 24 0.895431 24 2V22C24 23.1046 23.1046 24 22 24H2C0.895431 24 3.22133e-08 23.1046 0 22V2C0 0.895431 0.895431 3.22128e-08 2 0H22ZM3 4L9.80469 12.75L3.35547 20H6.11719L11.0957 14.4053L15.4463 20H21L13.9053 10.7773L19.9355 4H17.1748L12.6279 9.1123L8.69629 4H3Z" fill="#192434"/>
</svg>
