<svg width="18" height="18" viewBox="0 0 18 18" fill="none" xmlns="http://www.w3.org/2000/svg">
<rect width="18" height="18" rx="4" fill="#DADCDE" fill-opacity="0.2"/>
<path d="M13.4843 9.57044L13.4843 11.6282L11.2107 11.6282C10.7922 11.6282 10.4529 11.9353 10.4529 12.3141C10.4529 12.6929 10.7922 13 11.2107 13L14.2421 13C14.6607 13 15 12.6929 15 12.3141L15 9.57044C15 9.19162 14.6607 8.88453 14.2421 8.88453C13.8236 8.88453 13.4843 9.19162 13.4843 9.57044Z" fill="#99A1AC"/>
<path d="M13.2199 12.4719C13.5006 12.7527 13.9799 12.7747 14.2902 12.5208C14.6005 12.2667 14.6248 11.8329 14.3442 11.552L9.84549 7.05352C9.68562 6.89366 9.45172 6.81104 9.21448 6.83063C8.9772 6.85025 8.76372 6.96948 8.6385 7.15295L7.80526 8.37368L4.29386 5.20048C3.99765 4.93288 3.51721 4.9332 3.22151 5.20125C2.92585 5.46935 2.9262 5.90418 3.22236 6.1718L7.4116 9.95639C7.57546 10.1044 7.80573 10.1762 8.03568 10.1518C8.26552 10.1274 8.47054 10.0095 8.59217 9.83127L9.39764 8.65065L13.2199 12.4719Z" fill="#99A1AC"/>
</svg>
