<svg width="18" height="18" viewBox="0 0 18 18" fill="none" xmlns="http://www.w3.org/2000/svg">
<rect width="18" height="18" rx="4" fill="#DADCDE" fill-opacity="0.2"/>
<path d="M13.4843 8.42956V6.37182H11.2107C10.7922 6.37182 10.4529 6.06473 10.4529 5.68591C10.4529 5.30709 10.7922 5 11.2107 5H14.2421C14.6607 5 15 5.30709 15 5.68591V8.42956C15 8.80838 14.6607 9.11547 14.2421 9.11547C13.8236 9.11547 13.4843 8.80838 13.4843 8.42956Z" fill="#99A1AC"/>
<path d="M13.2199 5.52807C13.5006 5.24731 13.9799 5.22532 14.2902 5.47923C14.6005 5.73335 14.6248 6.16714 14.3442 6.448L9.84549 10.9465C9.68562 11.1063 9.45172 11.189 9.21448 11.1694C8.9772 11.1497 8.76372 11.0305 8.6385 10.8471L7.80526 9.62632L4.29386 12.7995C3.99765 13.0671 3.51721 13.0668 3.22151 12.7987C2.92585 12.5307 2.9262 12.0958 3.22236 11.8282L7.4116 8.04361C7.57546 7.89557 7.80573 7.82384 8.03568 7.84818C8.26552 7.8726 8.47054 7.99053 8.59217 8.16873L9.39764 9.34935L13.2199 5.52807Z" fill="#99A1AC"/>
</svg>
